<?xml version="1.0" encoding="UTF-8"?>
<svg id="Ebene_2" data-name="Ebene 2" xmlns="http://www.w3.org/2000/svg" xmlns:xlink="http://www.w3.org/1999/xlink" viewBox="0 0 444.41 512.56">
  <defs>
    <style>
      .cls-1 {
        fill: url(#linear-gradient-2);
      }

      .cls-2 {
        fill: url(#linear-gradient);
      }

      .cls-3 {
        fill: #6565db;
      }
    </style>
    <linearGradient id="linear-gradient" x1="52.17" y1="242.07" x2="128.28" y2="500.66" gradientUnits="userSpaceOnUse">
      <stop offset="0" stop-color="#4e4ead"/>
      <stop offset=".46" stop-color="#6565db"/>
      <stop offset="1" stop-color="#9191f2"/>
    </linearGradient>
    <linearGradient id="linear-gradient-2" x1="258.32" y1="297.39" x2="368.98" y2="29.6" gradientUnits="userSpaceOnUse">
      <stop offset="0" stop-color="#4e4ead"/>
      <stop offset=".43" stop-color="#6565db"/>
      <stop offset=".85" stop-color="#9191f2"/>
    </linearGradient>
  </defs>
  <g id="Layer_1" data-name="Layer 1">
    <g>
      <path class="cls-3" d="M217.51,413.87v-33.31c0-68.28,27.35-103.96,99.42-103.96h29.76c72.07,0,97.51,35.68,97.51,103.96,0,11.43,0,22.87,0,34.3,0,12.2.02,24.4.03,36.6,0,12.83,1.3,26.37-3.1,38.73-1.85,5.2-5.11,9.91-9.38,13.57-4.52,3.88-10.3,6.34-16.18,7.65-12.35,2.76-26.23.47-37.08-5.77-.22-.12-.43-.25-.65-.38-2.3-1.37-4.47-2.94-6.46-4.7-11.28-10-14.86-25.34-14.86-39.68v-89.78h-49.2v47.49c23.86,2.84,38.86,20.56,38.86,45.84,0,31.19-18.45,47.94-50.92,47.94-46.98,0-77.77-36.84-77.77-98.5Z"/>
      <path class="cls-3" d="M129.74,94.51h20.76c37.61,0,57.07-20.08,57.07-47.25S188.1,0,150.49,0h-67.47C30.35,0,0,30.25,0,70.88s32.94,70.89,77.85,70.89h-20.76c-22.75,0-38.86,7.35-48.02,19.16-6.03,7.73-9.07,17.36-9.07,28.09,0,27.17,19.46,47.25,57.09,47.25h67.45c52.67,0,83.03-30.24,83.03-70.89s-32.94-70.87-77.83-70.87Z"/>
      <path class="cls-2" d="M207.57,380.64v85.06c0,34.25-16.1,46.86-43.02,46.86s-46.81-12.61-46.81-46.86v-89.79h-24.12v89.79c0,34.25-19.88,46.86-46.8,46.86S0,499.95,0,465.7V189.02c0,23.78,14.15,40.02,40.13,45.55,5.7,1.21,11.52,1.7,17.34,1.7h39.18v50.99c1.12-.2,2.25-.62,3.01-.91,29-11.04,54.07-4.45,78.07,15.14,20.58,16.8,27.38,42.37,29.43,68.59.27,3.52.41,7.05.41,10.57Z"/>
      <path class="cls-1" d="M350.06,0h-28.59c-69.22,0-103.96,35.67-103.96,103.96v272.71l.03-.02c1.03-64.17,27.43-98.38,94.48-99.95V94.51h47.25v47.48c-17.93,2.22-30.65,13.56-35.35,30.71-9.37,34.29,19.63,66.74,54.99,63.18,41.48-4.19,65.49-40.65,65.49-98.6v-33.31c0-68.29-25.12-103.96-94.34-103.96Z"/>
    </g>
  </g>
</svg>