<svg width="1175" height="205" viewBox="0 0 1175 205" fill="none" xmlns="http://www.w3.org/2000/svg">
<path d="M416.44 69.63C411.82 69.63 407.68 68.88 404.02 67.38C400.36 65.88 397.42 63.66 395.2 60.72C393.04 57.78 391.9 54.24 391.78 50.1H408.16C408.4 52.44 409.21 54.24 410.59 55.5C411.97 56.7 413.77 57.3 415.99 57.3C418.27 57.3 420.07 56.79 421.39 55.77C422.71 54.69 423.37 53.22 423.37 51.36C423.37 49.8 422.83 48.51 421.75 47.49C420.73 46.47 419.44 45.63 417.88 44.97C416.38 44.31 414.22 43.56 411.4 42.72C407.32 41.46 403.99 40.2 401.41 38.94C398.83 37.68 396.61 35.82 394.75 33.36C392.89 30.9 391.96 27.69 391.96 23.73C391.96 17.85 394.09 13.26 398.35 9.96C402.61 6.6 408.16 4.92 415 4.92C421.96 4.92 427.57 6.6 431.83 9.96C436.09 13.26 438.37 17.88 438.67 23.82H422.02C421.9 21.78 421.15 20.19 419.77 19.05C418.39 17.85 416.62 17.25 414.46 17.25C412.6 17.25 411.1 17.76 409.96 18.78C408.82 19.74 408.25 21.15 408.25 23.01C408.25 25.05 409.21 26.64 411.13 27.78C413.05 28.92 416.05 30.15 420.13 31.47C424.21 32.85 427.51 34.17 430.03 35.43C432.61 36.69 434.83 38.52 436.69 40.92C438.55 43.32 439.48 46.41 439.48 50.19C439.48 53.79 438.55 57.06 436.69 60C434.89 62.94 432.25 65.28 428.77 67.02C425.29 68.76 421.18 69.63 416.44 69.63ZM864.484 26.16C864.484 29.82 863.644 33.18 861.964 36.24C860.284 39.24 857.704 41.67 854.224 43.53C850.744 45.39 846.424 46.32 841.264 46.32H831.724V69H816.334V5.82H841.264C846.304 5.82 850.564 6.69 854.044 8.43C857.524 10.17 860.134 12.57 861.874 15.63C863.614 18.69 864.484 22.2 864.484 26.16ZM840.094 34.08C843.034 34.08 845.224 33.39 846.664 32.01C848.104 30.63 848.824 28.68 848.824 26.16C848.824 23.64 848.104 21.69 846.664 20.31C845.224 18.93 843.034 18.24 840.094 18.24H831.724V34.08H840.094ZM448.3 140.82V204H432.91V177.99H408.97V204H393.58V140.82H408.97V165.57H432.91V140.82H448.3ZM751.25 192.84H727.67L723.89 204H707.78L730.64 140.82H748.46L771.32 204H755.03L751.25 192.84ZM747.29 180.96L739.46 157.83L731.72 180.96H747.29Z" fill="#6565DB"/>
<path d="M471.811 69.81C467.191 69.81 462.991 68.76 459.211 66.66C455.491 64.56 452.551 61.59 450.391 57.75C448.291 53.85 447.241 49.35 447.241 44.25C447.241 39.21 448.321 34.77 450.481 30.93C452.701 27.03 455.701 24.06 459.481 22.02C463.261 19.92 467.491 18.87 472.171 18.87C476.851 18.87 481.081 19.92 484.861 22.02C488.641 24.06 491.611 27 493.771 30.84C495.991 34.68 497.101 39.15 497.101 44.25C497.101 49.35 495.961 53.85 493.681 57.75C491.461 61.59 488.431 64.56 484.591 66.66C480.751 68.76 476.491 69.81 471.811 69.81ZM471.811 62.61C474.751 62.61 477.511 61.92 480.091 60.54C482.671 59.16 484.741 57.09 486.301 54.33C487.921 51.57 488.731 48.21 488.731 44.25C488.731 40.29 487.951 36.93 486.391 34.17C484.831 31.41 482.791 29.37 480.271 28.05C477.751 26.67 475.021 25.98 472.081 25.98C469.081 25.98 466.321 26.67 463.801 28.05C461.341 29.37 459.361 31.41 457.861 34.17C456.361 36.93 455.611 40.29 455.611 44.25C455.611 48.27 456.331 51.66 457.771 54.42C459.271 57.18 461.251 59.25 463.711 60.63C466.171 61.95 468.871 62.61 471.811 62.61ZM527.939 26.43H517.589V69H509.399V26.43H503.009V19.68H509.399V16.17C509.399 10.65 510.809 6.63 513.629 4.11C516.509 1.53 521.099 0.239995 527.399 0.239995V7.08C523.799 7.08 521.249 7.8 519.749 9.24C518.309 10.62 517.589 12.93 517.589 16.17V19.68H527.939V26.43ZM547.479 26.43V55.5C547.479 57.9 547.989 59.61 549.009 60.63C550.029 61.59 551.799 62.07 554.319 62.07H560.349V69H552.969C548.409 69 544.989 67.95 542.709 65.85C540.429 63.75 539.289 60.3 539.289 55.5V26.43H532.899V19.68H539.289V7.26H547.479V19.68H560.349V26.43H547.479ZM635.972 19.68L620.582 69H612.122L600.242 29.85L588.362 69H579.902L564.422 19.68H572.792L584.132 61.08L596.372 19.68H604.742L616.712 61.17L627.872 19.68H635.972ZM641.04 44.16C641.04 39.12 642.06 34.71 644.1 30.93C646.14 27.09 648.93 24.12 652.47 22.02C656.07 19.92 660.06 18.87 664.44 18.87C668.76 18.87 672.51 19.8 675.69 21.66C678.87 23.52 681.24 25.86 682.8 28.68V19.68H691.08V69H682.8V59.82C681.18 62.7 678.75 65.1 675.51 67.02C672.33 68.88 668.61 69.81 664.35 69.81C659.97 69.81 656.01 68.73 652.47 66.57C648.93 64.41 646.14 61.38 644.1 57.48C642.06 53.58 641.04 49.14 641.04 44.16ZM682.8 44.25C682.8 40.53 682.05 37.29 680.55 34.53C679.05 31.77 677.01 29.67 674.43 28.23C671.91 26.73 669.12 25.98 666.06 25.98C663 25.98 660.21 26.7 657.69 28.14C655.17 29.58 653.16 31.68 651.66 34.44C650.16 37.2 649.41 40.44 649.41 44.16C649.41 47.94 650.16 51.24 651.66 54.06C653.16 56.82 655.17 58.95 657.69 60.45C660.21 61.89 663 62.61 666.06 62.61C669.12 62.61 671.91 61.89 674.43 60.45C677.01 58.95 679.05 56.82 680.55 54.06C682.05 51.24 682.8 47.97 682.8 44.25ZM713.11 27.69C714.55 24.87 716.59 22.68 719.23 21.12C721.93 19.56 725.2 18.78 729.04 18.78V27.24H726.88C717.7 27.24 713.11 32.22 713.11 42.18V69H704.92V19.68H713.11V27.69ZM783.494 42.45C783.494 44.01 783.404 45.66 783.224 47.4H743.804C744.104 52.26 745.754 56.07 748.754 58.83C751.814 61.53 755.504 62.88 759.824 62.88C763.364 62.88 766.304 62.07 768.644 60.45C771.044 58.77 772.724 56.55 773.684 53.79H782.504C781.184 58.53 778.544 62.4 774.584 65.4C770.624 68.34 765.704 69.81 759.824 69.81C755.144 69.81 750.944 68.76 747.224 66.66C743.564 64.56 740.684 61.59 738.584 57.75C736.484 53.85 735.434 49.35 735.434 44.25C735.434 39.15 736.454 34.68 738.494 30.84C740.534 27 743.384 24.06 747.044 22.02C750.764 19.92 755.024 18.87 759.824 18.87C764.504 18.87 768.644 19.89 772.244 21.93C775.844 23.97 778.604 26.79 780.524 30.39C782.504 33.93 783.494 37.95 783.494 42.45ZM775.034 40.74C775.034 37.62 774.344 34.95 772.964 32.73C771.584 30.45 769.694 28.74 767.294 27.6C764.954 26.4 762.344 25.8 759.464 25.8C755.324 25.8 751.784 27.12 748.844 29.76C745.964 32.4 744.314 36.06 743.894 40.74H775.034ZM882.036 27.69C883.476 24.87 885.516 22.68 888.156 21.12C890.856 19.56 894.126 18.78 897.966 18.78V27.24H895.806C886.626 27.24 882.036 32.22 882.036 42.18V69H873.846V19.68H882.036V27.69ZM928.93 69.81C924.31 69.81 920.11 68.76 916.33 66.66C912.61 64.56 909.67 61.59 907.51 57.75C905.41 53.85 904.36 49.35 904.36 44.25C904.36 39.21 905.44 34.77 907.6 30.93C909.82 27.03 912.82 24.06 916.6 22.02C920.38 19.92 924.61 18.87 929.29 18.87C933.97 18.87 938.2 19.92 941.98 22.02C945.76 24.06 948.73 27 950.89 30.84C953.11 34.68 954.22 39.15 954.22 44.25C954.22 49.35 953.08 53.85 950.8 57.75C948.58 61.59 945.55 64.56 941.71 66.66C937.87 68.76 933.61 69.81 928.93 69.81ZM928.93 62.61C931.87 62.61 934.63 61.92 937.21 60.54C939.79 59.16 941.86 57.09 943.42 54.33C945.04 51.57 945.85 48.21 945.85 44.25C945.85 40.29 945.07 36.93 943.51 34.17C941.95 31.41 939.91 29.37 937.39 28.05C934.87 26.67 932.14 25.98 929.2 25.98C926.2 25.98 923.44 26.67 920.92 28.05C918.46 29.37 916.48 31.41 914.98 34.17C913.48 36.93 912.73 40.29 912.73 44.25C912.73 48.27 913.45 51.66 914.89 54.42C916.39 57.18 918.37 59.25 920.83 60.63C923.29 61.95 925.99 62.61 928.93 62.61ZM961.929 44.16C961.929 39.12 962.949 34.71 964.989 30.93C967.029 27.09 969.819 24.12 973.359 22.02C976.959 19.92 980.979 18.87 985.419 18.87C989.259 18.87 992.829 19.77 996.129 21.57C999.429 23.31 1001.95 25.62 1003.69 28.5V2.4H1011.97V69H1003.69V59.73C1002.07 62.67 999.669 65.1 996.489 67.02C993.309 68.88 989.589 69.81 985.329 69.81C980.949 69.81 976.959 68.73 973.359 66.57C969.819 64.41 967.029 61.38 964.989 57.48C962.949 53.58 961.929 49.14 961.929 44.16ZM1003.69 44.25C1003.69 40.53 1002.94 37.29 1001.44 34.53C999.939 31.77 997.899 29.67 995.319 28.23C992.799 26.73 990.009 25.98 986.949 25.98C983.889 25.98 981.099 26.7 978.579 28.14C976.059 29.58 974.049 31.68 972.549 34.44C971.049 37.2 970.299 40.44 970.299 44.16C970.299 47.94 971.049 51.24 972.549 54.06C974.049 56.82 976.059 58.95 978.579 60.45C981.099 61.89 983.889 62.61 986.949 62.61C990.009 62.61 992.799 61.89 995.319 60.45C997.899 58.95 999.939 56.82 1001.44 54.06C1002.94 51.24 1003.69 47.97 1003.69 44.25ZM1069.55 19.68V69H1061.36V61.71C1059.8 64.23 1057.61 66.21 1054.79 67.65C1052.03 69.03 1048.97 69.72 1045.61 69.72C1041.77 69.72 1038.32 68.94 1035.26 67.38C1032.2 65.76 1029.77 63.36 1027.97 60.18C1026.23 57 1025.36 53.13 1025.36 48.57V19.68H1033.46V47.49C1033.46 52.35 1034.69 56.1 1037.15 58.74C1039.61 61.32 1042.97 62.61 1047.23 62.61C1051.61 62.61 1055.06 61.26 1057.58 58.56C1060.1 55.86 1061.36 51.93 1061.36 46.77V19.68H1069.55ZM1080.32 44.25C1080.32 39.15 1081.34 34.71 1083.38 30.93C1085.42 27.09 1088.24 24.12 1091.84 22.02C1095.5 19.92 1099.67 18.87 1104.35 18.87C1110.41 18.87 1115.39 20.34 1119.29 23.28C1123.25 26.22 1125.86 30.3 1127.12 35.52H1118.3C1117.46 32.52 1115.81 30.15 1113.35 28.41C1110.95 26.67 1107.95 25.8 1104.35 25.8C1099.67 25.8 1095.89 27.42 1093.01 30.66C1090.13 33.84 1088.69 38.37 1088.69 44.25C1088.69 50.19 1090.13 54.78 1093.01 58.02C1095.89 61.26 1099.67 62.88 1104.35 62.88C1107.95 62.88 1110.95 62.04 1113.35 60.36C1115.75 58.68 1117.4 56.28 1118.3 53.16H1127.12C1125.8 58.2 1123.16 62.25 1119.2 65.31C1115.24 68.31 1110.29 69.81 1104.35 69.81C1099.67 69.81 1095.5 68.76 1091.84 66.66C1088.24 64.56 1085.42 61.59 1083.38 57.75C1081.34 53.91 1080.32 49.41 1080.32 44.25ZM1148.04 26.43V55.5C1148.04 57.9 1148.55 59.61 1149.57 60.63C1150.59 61.59 1152.36 62.07 1154.88 62.07H1160.91V69H1153.53C1148.97 69 1145.55 67.95 1143.27 65.85C1140.99 63.75 1139.85 60.3 1139.85 55.5V26.43H1133.46V19.68H1139.85V7.26H1148.04V19.68H1160.91V26.43H1148.04ZM505.76 177.45C505.76 179.01 505.67 180.66 505.49 182.4H466.07C466.37 187.26 468.02 191.07 471.02 193.83C474.08 196.53 477.77 197.88 482.09 197.88C485.63 197.88 488.57 197.07 490.91 195.45C493.31 193.77 494.99 191.55 495.95 188.79H504.77C503.45 193.53 500.81 197.4 496.85 200.4C492.89 203.34 487.97 204.81 482.09 204.81C477.41 204.81 473.21 203.76 469.49 201.66C465.83 199.56 462.95 196.59 460.85 192.75C458.75 188.85 457.7 184.35 457.7 179.25C457.7 174.15 458.72 169.68 460.76 165.84C462.8 162 465.65 159.06 469.31 157.02C473.03 154.92 477.29 153.87 482.09 153.87C486.77 153.87 490.91 154.89 494.51 156.93C498.11 158.97 500.87 161.79 502.79 165.39C504.77 168.93 505.76 172.95 505.76 177.45ZM497.3 175.74C497.3 172.62 496.61 169.95 495.23 167.73C493.85 165.45 491.96 163.74 489.56 162.6C487.22 161.4 484.61 160.8 481.73 160.8C477.59 160.8 474.05 162.12 471.11 164.76C468.23 167.4 466.58 171.06 466.16 175.74H497.3ZM513.511 179.16C513.511 174.12 514.531 169.71 516.571 165.93C518.611 162.09 521.401 159.12 524.941 157.02C528.541 154.92 532.531 153.87 536.911 153.87C541.231 153.87 544.981 154.8 548.161 156.66C551.341 158.52 553.711 160.86 555.271 163.68V154.68H563.551V204H555.271V194.82C553.651 197.7 551.221 200.1 547.981 202.02C544.801 203.88 541.081 204.81 536.821 204.81C532.441 204.81 528.481 203.73 524.941 201.57C521.401 199.41 518.611 196.38 516.571 192.48C514.531 188.58 513.511 184.14 513.511 179.16ZM555.271 179.25C555.271 175.53 554.521 172.29 553.021 169.53C551.521 166.77 549.481 164.67 546.901 163.23C544.381 161.73 541.591 160.98 538.531 160.98C535.471 160.98 532.681 161.7 530.161 163.14C527.641 164.58 525.631 166.68 524.131 169.44C522.631 172.2 521.881 175.44 521.881 179.16C521.881 182.94 522.631 186.24 524.131 189.06C525.631 191.82 527.641 193.95 530.161 195.45C532.681 196.89 535.471 197.61 538.531 197.61C541.591 197.61 544.381 196.89 546.901 195.45C549.481 193.95 551.521 191.82 553.021 189.06C554.521 186.24 555.271 182.97 555.271 179.25ZM585.581 137.4V204H577.391V137.4H585.581ZM609.529 161.43V190.5C609.529 192.9 610.039 194.61 611.059 195.63C612.079 196.59 613.849 197.07 616.369 197.07H622.399V204H615.019C610.459 204 607.039 202.95 604.759 200.85C602.479 198.75 601.339 195.3 601.339 190.5V161.43H594.949V154.68H601.339V142.26H609.529V154.68H622.399V161.43H609.529ZM656.803 153.78C660.523 153.78 663.883 154.59 666.883 156.21C669.883 157.77 672.223 160.14 673.903 163.32C675.643 166.5 676.513 170.37 676.513 174.93V204H668.413V176.1C668.413 171.18 667.183 167.43 664.723 164.85C662.263 162.21 658.903 160.89 654.643 160.89C650.323 160.89 646.873 162.24 644.293 164.94C641.773 167.64 640.513 171.57 640.513 176.73V204H632.323V137.4H640.513V161.7C642.133 159.18 644.353 157.23 647.173 155.85C650.053 154.47 653.263 153.78 656.803 153.78ZM797.087 204.81C793.307 204.81 789.917 204.18 786.917 202.92C783.917 201.6 781.547 199.8 779.807 197.52C778.067 195.18 777.107 192.51 776.927 189.51H785.387C785.627 191.97 786.767 193.98 788.807 195.54C790.907 197.1 793.637 197.88 796.997 197.88C800.117 197.88 802.577 197.19 804.377 195.81C806.177 194.43 807.077 192.69 807.077 190.59C807.077 188.43 806.117 186.84 804.197 185.82C802.277 184.74 799.307 183.69 795.287 182.67C791.627 181.71 788.627 180.75 786.287 179.79C784.007 178.77 782.027 177.3 780.347 175.38C778.727 173.4 777.917 170.82 777.917 167.64C777.917 165.12 778.667 162.81 780.167 160.71C781.667 158.61 783.797 156.96 786.557 155.76C789.317 154.5 792.467 153.87 796.007 153.87C801.467 153.87 805.877 155.25 809.237 158.01C812.597 160.77 814.397 164.55 814.637 169.35H806.447C806.267 166.77 805.217 164.7 803.297 163.14C801.437 161.58 798.917 160.8 795.737 160.8C792.797 160.8 790.457 161.43 788.717 162.69C786.977 163.95 786.107 165.6 786.107 167.64C786.107 169.26 786.617 170.61 787.637 171.69C788.717 172.71 790.037 173.55 791.597 174.21C793.217 174.81 795.437 175.5 798.257 176.28C801.797 177.24 804.677 178.2 806.897 179.16C809.117 180.06 811.007 181.44 812.567 183.3C814.187 185.16 815.027 187.59 815.087 190.59C815.087 193.29 814.337 195.72 812.837 197.88C811.337 200.04 809.207 201.75 806.447 203.01C803.747 204.21 800.627 204.81 797.087 204.81ZM844.109 204.81C840.329 204.81 836.939 204.18 833.939 202.92C830.939 201.6 828.569 199.8 826.829 197.52C825.089 195.18 824.129 192.51 823.949 189.51H832.409C832.649 191.97 833.789 193.98 835.829 195.54C837.929 197.1 840.659 197.88 844.019 197.88C847.139 197.88 849.599 197.19 851.399 195.81C853.199 194.43 854.099 192.69 854.099 190.59C854.099 188.43 853.139 186.84 851.219 185.82C849.299 184.74 846.329 183.69 842.309 182.67C838.649 181.71 835.649 180.75 833.309 179.79C831.029 178.77 829.049 177.3 827.369 175.38C825.749 173.4 824.939 170.82 824.939 167.64C824.939 165.12 825.689 162.81 827.189 160.71C828.689 158.61 830.819 156.96 833.579 155.76C836.339 154.5 839.489 153.87 843.029 153.87C848.489 153.87 852.899 155.25 856.259 158.01C859.619 160.77 861.419 164.55 861.659 169.35H853.469C853.289 166.77 852.239 164.7 850.319 163.14C848.459 161.58 845.939 160.8 842.759 160.8C839.819 160.8 837.479 161.43 835.739 162.69C833.999 163.95 833.129 165.6 833.129 167.64C833.129 169.26 833.639 170.61 834.659 171.69C835.739 172.71 837.059 173.55 838.619 174.21C840.239 174.81 842.459 175.5 845.279 176.28C848.819 177.24 851.699 178.2 853.919 179.16C856.139 180.06 858.029 181.44 859.589 183.3C861.209 185.16 862.049 187.59 862.109 190.59C862.109 193.29 861.359 195.72 859.859 197.88C858.359 200.04 856.229 201.75 853.469 203.01C850.769 204.21 847.649 204.81 844.109 204.81ZM877.9 146.67C876.34 146.67 875.02 146.13 873.94 145.05C872.86 143.97 872.32 142.65 872.32 141.09C872.32 139.53 872.86 138.21 873.94 137.13C875.02 136.05 876.34 135.51 877.9 135.51C879.4 135.51 880.66 136.05 881.68 137.13C882.76 138.21 883.3 139.53 883.3 141.09C883.3 142.65 882.76 143.97 881.68 145.05C880.66 146.13 879.4 146.67 877.9 146.67ZM881.86 154.68V204H873.67V154.68H881.86ZM913.279 204.81C909.499 204.81 906.109 204.18 903.109 202.92C900.109 201.6 897.739 199.8 895.999 197.52C894.259 195.18 893.299 192.51 893.119 189.51H901.579C901.819 191.97 902.959 193.98 904.999 195.54C907.099 197.1 909.829 197.88 913.189 197.88C916.309 197.88 918.769 197.19 920.569 195.81C922.369 194.43 923.269 192.69 923.269 190.59C923.269 188.43 922.309 186.84 920.389 185.82C918.469 184.74 915.499 183.69 911.479 182.67C907.819 181.71 904.819 180.75 902.479 179.79C900.199 178.77 898.219 177.3 896.539 175.38C894.919 173.4 894.109 170.82 894.109 167.64C894.109 165.12 894.859 162.81 896.359 160.71C897.859 158.61 899.989 156.96 902.749 155.76C905.509 154.5 908.659 153.87 912.199 153.87C917.659 153.87 922.069 155.25 925.429 158.01C928.789 160.77 930.589 164.55 930.829 169.35H922.639C922.459 166.77 921.409 164.7 919.489 163.14C917.629 161.58 915.109 160.8 911.929 160.8C908.989 160.8 906.649 161.43 904.909 162.69C903.169 163.95 902.299 165.6 902.299 167.64C902.299 169.26 902.809 170.61 903.829 171.69C904.909 172.71 906.229 173.55 907.789 174.21C909.409 174.81 911.629 175.5 914.449 176.28C917.989 177.24 920.869 178.2 923.089 179.16C925.309 180.06 927.199 181.44 928.759 183.3C930.379 185.16 931.219 187.59 931.279 190.59C931.279 193.29 930.529 195.72 929.029 197.88C927.529 200.04 925.399 201.75 922.639 203.01C919.939 204.21 916.819 204.81 913.279 204.81ZM952.83 161.43V190.5C952.83 192.9 953.34 194.61 954.36 195.63C955.38 196.59 957.15 197.07 959.67 197.07H965.7V204H958.32C953.76 204 950.34 202.95 948.06 200.85C945.78 198.75 944.64 195.3 944.64 190.5V161.43H938.25V154.68H944.64V142.26H952.83V154.68H965.7V161.43H952.83ZM972.563 179.16C972.563 174.12 973.583 169.71 975.623 165.93C977.663 162.09 980.453 159.12 983.993 157.02C987.593 154.92 991.583 153.87 995.963 153.87C1000.28 153.87 1004.03 154.8 1007.21 156.66C1010.39 158.52 1012.76 160.86 1014.32 163.68V154.68H1022.6V204H1014.32V194.82C1012.7 197.7 1010.27 200.1 1007.03 202.02C1003.85 203.88 1000.13 204.81 995.873 204.81C991.493 204.81 987.533 203.73 983.993 201.57C980.453 199.41 977.663 196.38 975.623 192.48C973.583 188.58 972.563 184.14 972.563 179.16ZM1014.32 179.25C1014.32 175.53 1013.57 172.29 1012.07 169.53C1010.57 166.77 1008.53 164.67 1005.95 163.23C1003.43 161.73 1000.64 160.98 997.583 160.98C994.523 160.98 991.733 161.7 989.213 163.14C986.693 164.58 984.683 166.68 983.183 169.44C981.683 172.2 980.933 175.44 980.933 179.16C980.933 182.94 981.683 186.24 983.183 189.06C984.683 191.82 986.693 193.95 989.213 195.45C991.733 196.89 994.523 197.61 997.583 197.61C1000.64 197.61 1003.43 196.89 1005.95 195.45C1008.53 193.95 1010.57 191.82 1012.07 189.06C1013.57 186.24 1014.32 182.97 1014.32 179.25ZM1060.47 153.78C1066.47 153.78 1071.33 155.61 1075.05 159.27C1078.77 162.87 1080.63 168.09 1080.63 174.93V204H1072.53V176.1C1072.53 171.18 1071.3 167.43 1068.84 164.85C1066.38 162.21 1063.02 160.89 1058.76 160.89C1054.44 160.89 1050.99 162.24 1048.41 164.94C1045.89 167.64 1044.63 171.57 1044.63 176.73V204H1036.44V154.68H1044.63V161.7C1046.25 159.18 1048.44 157.23 1051.2 155.85C1054.02 154.47 1057.11 153.78 1060.47 153.78ZM1104 161.43V190.5C1104 192.9 1104.51 194.61 1105.53 195.63C1106.55 196.59 1108.32 197.07 1110.84 197.07H1116.87V204H1109.49C1104.93 204 1101.51 202.95 1099.23 200.85C1096.95 198.75 1095.81 195.3 1095.81 190.5V161.43H1089.42V154.68H1095.81V142.26H1104V154.68H1116.87V161.43H1104Z" fill="#9191F2"/>
<path d="M243.963 7.60735C240.498 6.49014 236.836 5.77546 233.068 5.36472C184.998 0.476943 172.674 46.3317 172.674 46.3317C172.674 46.3317 160.351 0.476943 112.38 5.36472C67.7742 9.84998 44.3426 66.0964 73.5787 113.381C81.9284 126.935 94.966 141.508 108.923 155.062C136.928 182.269 168.504 204.893 172.683 204.893C178.996 204.893 246.524 154.249 271.778 113.487C298.568 70.1791 281.253 19.3298 243.971 7.60735H243.963Z" fill="#6565DB"/>
<path d="M90.5901 126.196L77.5935 119.493L64.1618 112.568L71.0336 109.019C63.7349 95.6292 60.5001 81.6805 60.6315 68.5205L13.2182 93.3537C3.13623 98.6687 0 104.937 0 112.568C0 120.2 3.13623 126.467 13.2182 131.782L71.2471 162.177C75.3275 164.354 78.5951 165.036 81.871 165.036C92.191 165.036 100.237 158.217 101.863 148.048C102.06 146.807 102.166 145.517 102.166 144.187C102.166 136.415 98.6195 130.287 90.5901 126.196Z" fill="#9191F2"/>
<path opacity="0.3" d="M104.846 49.1235C113.822 38.4839 116.737 26.1744 111.356 21.6295C105.975 17.0846 94.3363 22.0252 85.3598 32.6648C76.3833 43.3044 73.4685 55.6138 78.8494 60.1588C84.2302 64.7037 95.8691 59.763 104.846 49.1235Z" fill="white"/>
<path opacity="0.15" d="M100.376 135.946C102.905 141.762 101.862 148.047 101.862 148.047L108.907 155.169C108.899 153.271 108.677 150.93 107.963 148.351C106.214 142.058 102.495 137.951 100.376 135.955V135.946Z" fill="black"/>
<path opacity="0.15" d="M243.963 7.60742C243.963 7.60742 281.138 43.4813 259.751 80.3655C255.654 87.4302 249.718 94.8152 242.731 102.167L235.506 88.761C231.877 93.2544 231.221 98.8816 233.684 102.636C235.145 104.862 237.354 105.889 238.643 106.341C208.963 135.856 164.555 163.491 156.772 164.747C148.422 166.07 127.24 164.14 108.907 155.169C136.911 182.376 168.487 205 172.666 205C178.98 204.901 246.508 154.249 271.762 113.389C298.552 70.1792 281.236 19.3299 243.954 7.60742H243.963Z" fill="black"/>
<path d="M324.487 99.3582L284.217 78.2709L266.458 68.9636C265.9 68.6679 265.358 68.3968 264.833 68.1586C261.475 66.606 258.659 66.0967 255.834 66.0967C244.258 66.0967 235.539 74.6893 235.539 86.9539C235.539 93.1314 237.772 98.2739 242.731 102.176C244.004 103.178 245.465 104.106 247.115 104.944L269.709 116.593L269.751 116.617L273.544 118.573L265.448 122.746L265.35 122.795C257.32 133.663 246.968 144.893 236.106 155.416V155.44C238.216 164.838 245.991 171.04 255.834 171.04C259.102 171.04 262.37 170.358 266.458 168.181L324.487 137.787C334.569 132.472 337.697 126.204 337.697 118.573C337.697 110.941 334.569 104.673 324.487 99.3582Z" fill="#9191F2"/>
</svg>
