<svg width="1160" height="1159" xmlns="http://www.w3.org/2000/svg" xmlns:xlink="http://www.w3.org/1999/xlink" xml:space="preserve" overflow="hidden"><defs><clipPath id="clip0"><path d="M1778 1035.99 2300.07 916.942 2419.11 1439.01 1897.04 1558.06Z" fill-rule="nonzero" clip-rule="nonzero"/></clipPath><clipPath id="clip1"><path d="M1778 1035.99 2300.07 916.942 2419.11 1439.01 1897.04 1558.06Z" fill-rule="evenodd" clip-rule="evenodd"/></clipPath><clipPath id="clip2"><path d="M1778 1035.99 2300.07 916.942 2419.11 1439.01 1897.04 1558.06Z" fill-rule="evenodd" clip-rule="evenodd"/></clipPath></defs><g transform="translate(-1397 -472)"><g><path d="M1402 1052.5C1402 734.108 1660.11 476 1978.5 476 2296.89 476 2555 734.108 2555 1052.5 2555 1370.89 2296.89 1629 1978.5 1629 1660.11 1629 1402 1370.89 1402 1052.5Z" fill="#79D4FE" fill-rule="evenodd" fill-opacity="1"/><path d="M1614 739.169C1614 689.922 1653.92 650 1703.17 650L2059.83 650C2109.08 650 2149 689.922 2149 739.169L2149 1243.83C2149 1293.08 2109.08 1333 2059.83 1333L1703.17 1333C1653.92 1333 1614 1293.08 1614 1243.83Z" fill="#FFFFFF" fill-rule="evenodd" fill-opacity="1"/><path d="M1668.5 783.833C1668.5 778.679 1672.68 774.5 1677.83 774.5L1716.17 774.5C1721.32 774.5 1725.5 778.679 1725.5 783.833L1725.5 821.166C1725.5 826.321 1721.32 830.5 1716.17 830.5L1677.83 830.5C1672.68 830.5 1668.5 826.321 1668.5 821.166Z" stroke="#262626" stroke-width="6.875" stroke-linecap="butt" stroke-linejoin="miter" stroke-miterlimit="8" stroke-opacity="1" fill="#262626" fill-rule="evenodd" fill-opacity="1"/><path d="M1799.5 797.46C1799.5 790.302 1805.3 784.5 1812.46 784.5L2011.54 784.5C2018.7 784.5 2024.5 790.302 2024.5 797.46L2024.5 811.54C2024.5 818.698 2018.7 824.5 2011.54 824.5L1812.46 824.5C1805.3 824.5 1799.5 818.698 1799.5 811.54Z" stroke="#262626" stroke-width="6.875" stroke-linecap="butt" stroke-linejoin="miter" stroke-miterlimit="8" stroke-opacity="1" fill="#262626" fill-rule="evenodd" fill-opacity="1"/><path d="M1668.5 907.834C1668.5 902.679 1672.68 898.5 1677.83 898.5L1716.17 898.5C1721.32 898.5 1725.5 902.679 1725.5 907.834L1725.5 945.167C1725.5 950.321 1721.32 954.5 1716.17 954.5L1677.83 954.5C1672.68 954.5 1668.5 950.321 1668.5 945.167Z" stroke="#262626" stroke-width="6.875" stroke-linecap="butt" stroke-linejoin="miter" stroke-miterlimit="8" stroke-opacity="1" fill="#262626" fill-rule="evenodd" fill-opacity="1"/><path d="M1799.5 921.46C1799.5 914.302 1805.3 908.5 1812.46 908.5L2011.54 908.5C2018.7 908.5 2024.5 914.302 2024.5 921.46L2024.5 935.54C2024.5 942.698 2018.7 948.5 2011.54 948.5L1812.46 948.5C1805.3 948.5 1799.5 942.698 1799.5 935.54Z" stroke="#262626" stroke-width="6.875" stroke-linecap="butt" stroke-linejoin="miter" stroke-miterlimit="8" stroke-opacity="1" fill="#262626" fill-rule="evenodd" fill-opacity="1"/><path d="M1668.5 1033.83C1668.5 1028.68 1672.68 1024.5 1677.83 1024.5L1716.17 1024.5C1721.32 1024.5 1725.5 1028.68 1725.5 1033.83L1725.5 1071.17C1725.5 1076.32 1721.32 1080.5 1716.17 1080.5L1677.83 1080.5C1672.68 1080.5 1668.5 1076.32 1668.5 1071.17Z" stroke="#262626" stroke-width="6.875" stroke-linecap="butt" stroke-linejoin="miter" stroke-miterlimit="8" stroke-opacity="1" fill="#262626" fill-rule="evenodd" fill-opacity="1"/><path d="M1799.5 1047.46C1799.5 1040.3 1805.3 1034.5 1812.46 1034.5L2011.54 1034.5C2018.7 1034.5 2024.5 1040.3 2024.5 1047.46L2024.5 1061.54C2024.5 1068.7 2018.7 1074.5 2011.54 1074.5L1812.46 1074.5C1805.3 1074.5 1799.5 1068.7 1799.5 1061.54Z" stroke="#262626" stroke-width="6.875" stroke-linecap="butt" stroke-linejoin="miter" stroke-miterlimit="8" stroke-opacity="1" fill="#262626" fill-rule="evenodd" fill-opacity="1"/><g clip-path="url(#clip0)"><g clip-path="url(#clip1)"><g clip-path="url(#clip2)"><path d="M2336.71 1341.09 2253.24 1288.62C2241.88 1281.48 2228.63 1281.07 2217.16 1285.97L2187.78 1267.5C2202.79 1235.47 2207.36 1197.82 2198.93 1160.84 2178.46 1071.1 2088.31 1014.43 1998.58 1034.89 1908.85 1055.35 1852.17 1145.51 1872.63 1235.24 1893.09 1324.97 1983.25 1381.64 2072.98 1361.18 2109.96 1352.75 2141.37 1332.43 2164.27 1304.9L2193.65 1323.37C2194.21 1335.83 2200.32 1347.59 2211.67 1354.73L2295.15 1407.21C2304.5 1413.09 2315.16 1414.66 2324.95 1412.43 2334.74 1410.2 2343.66 1404.16 2349.53 1394.81 2360.2 1376.36 2354.75 1352.43 2336.71 1341.09ZM2064.87 1328.13C1993.09 1344.5 1920.96 1299.16 1904.59 1227.38 1888.22 1155.59 1933.56 1083.47 2005.35 1067.1 2077.13 1050.73 2149.26 1096.07 2165.63 1167.86 2182 1239.64 2136.66 1311.77 2064.87 1328.13Z" fill="#000000" fill-rule="nonzero" fill-opacity="1"/></g></g></g><path d="M0 7.16676C-1.27314e-15 3.20867 3.20868-1.27313e-15 7.16678-1.27313e-15L8.83302 0C12.7911-1.27313e-15 15.9998 3.20867 15.9998 7.16676L15.9998 72.8333C15.9998 76.7914 12.7911 80.0001 8.83302 80.0001L7.16678 80.0001C3.20868 80.0001 0 76.7914 0 72.8333Z" stroke="#79D4FE" stroke-width="6.875" stroke-linecap="butt" stroke-linejoin="miter" stroke-miterlimit="8" stroke-opacity="1" fill="#79D4FE" fill-rule="evenodd" fill-opacity="1" transform="matrix(-1 0 0 1 2035.5 1123.5)"/><path d="M0 7.39064C-1.45361e-15 3.3089 3.30891-1.45361e-15 7.39065-1.45361e-15L9.10898 0C13.1907-1.45361e-15 16.4996 3.3089 16.4996 7.39064L16.4996 83.9498C16.4996 88.0315 13.1907 91.3404 9.10898 91.3404L7.39065 91.3404C3.30891 91.3404 0 88.0315 0 83.9498Z" stroke="#79D4FE" stroke-width="6.875" stroke-linecap="butt" stroke-linejoin="miter" stroke-miterlimit="8" stroke-opacity="1" fill="#79D4FE" fill-rule="evenodd" fill-opacity="1" transform="matrix(-0.757489 0.652848 0.652848 0.757489 2030.81 1187.32)"/></g></g></svg>