<svg width="69" height="70" xmlns="http://www.w3.org/2000/svg" xmlns:xlink="http://www.w3.org/1999/xlink" xml:space="preserve" overflow="hidden"><g transform="translate(-1045 -522)"><g><g><g><g><path d="M1112.79 561.992 1112.79 526.763C1112.79 525.352 1111.65 524.213 1110.24 524.213L1098.1 524.213 1098.1 572.77C1098.1 574.72 1100.46 575.694 1101.83 574.317L1111.83 564.31C1112.44 563.698 1112.79 562.865 1112.79 561.992Z" fill="#FF0036" fill-rule="nonzero" fill-opacity="1"/><path d="M1098.1 524.213 1075.01 524.213C1074.14 524.213 1073.3 524.558 1072.69 525.17L1062.69 535.172C1061.31 536.549 1062.29 538.906 1064.24 538.906L1098.1 538.906 1098.1 524.213Z" fill="#FFC900" fill-rule="nonzero" fill-opacity="1"/><path d="M1084.99 589.787 1049.76 589.787C1048.35 589.787 1047.21 588.648 1047.21 587.237L1047.21 575.094 1095.77 575.094C1097.72 575.094 1098.69 577.451 1097.32 578.828L1087.31 588.83C1086.7 589.442 1085.86 589.787 1084.99 589.787Z" fill="#1904DA" fill-rule="nonzero" fill-opacity="1"/><path d="M1047.21 575.099 1047.21 552.008C1047.21 551.141 1047.56 550.302 1048.17 549.69L1058.17 539.688C1059.55 538.311 1061.91 539.286 1061.91 541.235L1061.91 575.099 1047.21 575.099Z" fill="#08B1D5" fill-rule="nonzero" fill-opacity="1"/></g></g></g></g></g></svg>